<?xml version="1.0" encoding="UTF-8"?>
<svg version="1.1" xmlns="http://www.w3.org/2000/svg" width="80" height="64">
<path d="M0 0 C5.4939759 2.69879518 5.4939759 2.69879518 6.875 6.25 C6.91625 6.8275 6.9575 7.405 7 8 C8.98 8 10.96 8 13 8 C13.33 6.35 13.66 4.7 14 3 C16.475 3.495 16.475 3.495 19 4 C19 5.32 19 6.64 19 8 C19.99 8 20.98 8 22 8 C22 9.65 22 11.3 22 13 C21.01 13 20.02 13 19 13 C19.495 19.93 19.495 19.93 20 27 C21.32 27.33 22.64 27.66 24 28 C24 29.65 24 31.3 24 33 C20.36179956 33.33074549 18.6226914 33.48805542 15.6875 31.1875 C12.70599748 27.32258933 12.89068002 24.04131756 12.9375 19.3125 C12.94652344 18.13300781 12.95554688 16.95351563 12.96484375 15.73828125 C12.97644531 14.83464844 12.98804688 13.93101563 13 13 C11.68 13 10.36 13 9 13 C9.05220703 14.15628906 9.05220703 14.15628906 9.10546875 15.3359375 C9.13253906 16.33882812 9.15960938 17.34171875 9.1875 18.375 C9.23970703 19.87160156 9.23970703 19.87160156 9.29296875 21.3984375 C9.14794922 22.68621094 9.14794922 22.68621094 9 24 C8.01 24.66 7.02 25.32 6 26 C6.04125 27.258125 6.0825 28.51625 6.125 29.8125 C6.2096653 33.13258912 6.01659935 33.97154398 4.25 37 C-0.58248563 39.97383731 -5.45819421 39.91474098 -11 39 C-13.37109375 37.46875 -13.37109375 37.46875 -15 36 C-14.67 34.35 -14.34 32.7 -14 31 C-12.33388095 30.957279 -10.66617115 30.95936168 -9 31 C-8.67 31.33 -8.34 31.66 -8 32 C-6.00041636 32.04080783 -3.99954746 32.04254356 -2 32 C-2.33 31.01 -2.66 30.02 -3 29 C-3.33 29.33 -3.66 29.66 -4 30 C-9.09990174 29.66000655 -12.91308737 29.29223517 -17 26 C-21.13274522 21.19707988 -21.41813284 18.06292614 -21 12 C-20.34 12 -19.68 12 -19 12 C-18.6596875 10.39125 -18.6596875 10.39125 -18.3125 8.75 C-15.27928885 0.08368242 -8.1952318 -0.91615914 0 0 Z M-14 8 C-15.38868516 10.10039331 -15.38868516 10.10039331 -16 12 C-14.515 12.99 -14.515 12.99 -13 14 C-12.505 13.360625 -12.01 12.72125 -11.5 12.0625 C-8.21261442 9.35040689 -5.16269738 8.76830998 -1 9 C1.55489513 9.76021362 3.61760155 10.75916748 6 12 C4.49755564 8.17559618 2.47989889 6.16527042 -1 4 C-6.64263508 3.17925308 -9.6624755 4.36858414 -14 8 Z M-6 15 C-6 16.32 -6 17.64 -6 19 C-3.03 19.99 -0.06 20.98 3 22 C3 20.35 3 18.7 3 17 C-0.13498292 15.14223235 -2.37471432 14.79859524 -6 15 Z M-14 23 C-13.67 23.99 -13.34 24.98 -13 26 C-11.68 25.67 -10.36 25.34 -9 25 C-11.475 24.01 -11.475 24.01 -14 23 Z " fill="#59BBCF" transform="translate(36,2)"/>
<path d="M0 0 C4.55555556 0.55555556 4.55555556 0.55555556 6 2 C6.33 1.34 6.66 0.68 7 0 C8.875 0.3125 8.875 0.3125 11 1 C11.66 1.99 12.32 2.98 13 4 C13.66 2.68 14.32 1.36 15 0 C16.9375 0.375 16.9375 0.375 19 1 C19.33 1.66 19.66 2.32 20 3 C20.33 2.01 20.66 1.02 21 0 C21.639375 0.185625 22.27875 0.37125 22.9375 0.5625 C23.9584375 0.7790625 23.9584375 0.7790625 25 1 C25.33 0.67 25.66 0.34 26 0 C28.9375 -0.1875 28.9375 -0.1875 32 0 C32.66 0.66 33.32 1.32 34 2 C34.33 1.34 34.66 0.68 35 0 C36.98 0 38.96 0 41 0 C41 3.3 41 6.6 41 10 C40.01 10 39.02 10 38 10 C37.505 8.515 37.505 8.515 37 7 C36.67 7.99 36.34 8.98 36 10 C35.278125 9.814375 34.55625 9.62875 33.8125 9.4375 C30.8527768 8.97709861 28.88369435 9.29856083 26 10 C22.66666667 10 19.33333333 10 16 10 C24.68679101 10.71961582 33.28299826 11.14368684 42 11 C42.38218767 12.65614657 42.71395102 14.32457024 43 16 C42 17 42 17 38.03100586 17.11352539 C36.25894393 17.1133662 34.4868774 17.10766785 32.71484375 17.09765625 C31.78402481 17.0962413 30.85320587 17.09482635 29.8941803 17.09336853 C26.90858809 17.08775172 23.92306971 17.0751964 20.9375 17.0625 C18.91862087 17.05748716 16.89974057 17.05292388 14.88085938 17.04882812 C9.92054428 17.03777683 4.96028468 17.02050095 0 17 C-0.33951619 15.43883181 -0.67132544 13.87598662 -1 12.3125 C-1.185625 11.44238281 -1.37125 10.57226562 -1.5625 9.67578125 C-1.99575896 7.02593851 -2.21890003 4.67696494 -2 2 C-1.34 1.34 -0.68 0.68 0 0 Z M8 8 C7.67 8.99 7.34 9.98 7 11 C8.65 11 10.3 11 12 11 C10.68 10.01 9.36 9.02 8 8 Z " fill="#0E74E1" transform="translate(21,44)"/>
<path d="M0 0 C2 1.5625 2 1.5625 3 3 C2.34 4.32 1.68 5.64 1 7 C-1.97 7 -4.94 7 -8 7 C-7.34606344 10.10989294 -7.34606344 10.10989294 -5.00390625 11.0625 C-4.19824219 11.371875 -3.39257812 11.68125 -2.5625 12 C0.97530152 13.36287699 1.80724219 13.71086329 4 17 C4.53198456 21.71186325 4.64536434 23.89366112 2.25 28 C-2.58248563 30.97383731 -7.45819421 30.91474098 -13 30 C-15.37109375 28.46875 -15.37109375 28.46875 -17 27 C-16.67 25.35 -16.34 23.7 -16 22 C-14.33388095 21.957279 -12.66617115 21.95936168 -11 22 C-10.67 22.33 -10.34 22.66 -10 23 C-8.00041636 23.04080783 -5.99954746 23.04254356 -4 23 C-4.15957536 21.04882047 -4.15957536 21.04882047 -5 19 C-7.0102207 17.75525554 -7.0102207 17.75525554 -9.4375 16.9375 C-12.99865651 15.6056389 -13.79695316 15.30457026 -16 12 C-16.4375 8.625 -16.4375 8.625 -16 5 C-11.24202969 -0.91531444 -7.06806667 -1.72284125 0 0 Z " fill="#EAEAEA" transform="translate(38,11)"/>
<path d="M0 0 C14.19 0 28.38 0 43 0 C43.495 2.475 43.495 2.475 44 5 C43 6 43 6 39.03100586 6.11352539 C37.25894393 6.1133662 35.4868774 6.10766785 33.71484375 6.09765625 C32.78402481 6.0962413 31.85320587 6.09482635 30.8941803 6.09336853 C27.90858809 6.08775172 24.92306971 6.0751964 21.9375 6.0625 C19.91862087 6.05748716 17.89974057 6.05292388 15.88085938 6.04882812 C10.92054428 6.03777683 5.96028468 6.02050095 1 6 C0.67 4.02 0.34 2.04 0 0 Z " fill="#CFCECF" transform="translate(20,55)"/>
<path d="M0 0 C0 0.99 0 1.98 0 3 C-1.98 3 -3.96 3 -6 3 C-6 3.66 -6 4.32 -6 5 C-6.969375 5.639375 -7.93875 6.27875 -8.9375 6.9375 C-12.24255225 8.71061007 -12.24255225 8.71061007 -13 12 C-12.67 12.33 -12.34 12.66 -12 13 C-11.76572222 15.01594582 -11.58663876 17.038474 -11.4375 19.0625 C-11.35371094 20.16722656 -11.26992188 21.27195312 -11.18359375 22.41015625 C-11.12300781 23.26480469 -11.06242187 24.11945312 -11 25 C-8.03 25.33 -5.06 25.66 -2 26 C-2 27.32 -2 28.64 -2 30 C-8.7466679 29.42824848 -12.72429492 28.64473834 -17.3125 23.3125 C-19.45069423 19.11530392 -19.32057159 16.648288 -19 12 C-18.34 12 -17.68 12 -17 12 C-16.6596875 10.39125 -16.6596875 10.39125 -16.3125 8.75 C-13.40142515 0.43264328 -7.73600334 -0.12477425 0 0 Z " fill="#1AAFCE" transform="translate(34,2)"/>
<path d="M0 0 C6.81818182 1.96969697 6.81818182 1.96969697 9 5 C9 5.99 9 6.98 9 8 C10.98 8 12.96 8 15 8 C15.33 6.68 15.66 5.36 16 4 C16 6.64 16 9.28 16 12 C14.35 12.33 12.7 12.66 11 13 C11 16.63 11 20.26 11 24 C9.68 24.33 8.36 24.66 7 25 C5 23 5 23 4.875 19.875 C4.91625 18.92625 4.9575 17.9775 5 17 C4.34 16.67 3.68 16.34 3 16 C3.66 16 4.32 16 5 16 C5.33 14.68 5.66 13.36 6 12 C6.66 12 7.32 12 8 12 C5.10582746 7.7054214 3.33845705 5.72993716 -1.8125 4.625 C-3.20465411 4.39335282 -4.59983914 4.17692664 -6 4 C-6 3.67 -6 3.34 -6 3 C-4.02 3 -2.04 3 0 3 C0 2.01 0 1.02 0 0 Z " fill="#51A4E3" transform="translate(34,2)"/>
<path d="M0 0 C1.98 0 3.96 0 6 0 C6 3.3 6 6.6 6 10 C5.01 10 4.02 10 3 10 C2.67 9.01 2.34 8.02 2 7 C1.67 7.99 1.34 8.98 1 10 C0.278125 9.814375 -0.44375 9.62875 -1.1875 9.4375 C-4.12826973 8.98004693 -6.14103058 9.26483643 -9 10 C-9.33 9.34 -9.66 8.68 -10 8 C-8.68 8.33 -7.36 8.66 -6 9 C-6 6.69 -6 4.38 -6 2 C-4.0625 1.4375 -4.0625 1.4375 -2 1 C-1.67 1.33 -1.34 1.66 -1 2 C-0.67 1.34 -0.34 0.68 0 0 Z " fill="#104DD3" transform="translate(56,44)"/>
<path d="M0 0 C2.25 -0.25 2.25 -0.25 5 0 C6.33333333 1.33333333 7.66666667 2.66666667 9 4 C12.63543901 5.27765265 12.63543901 5.27765265 16 6 C16 7.65 16 9.3 16 11 C14.58249437 10.88490339 13.16598831 10.75746342 11.75 10.625 C10.56664062 10.52058594 10.56664062 10.52058594 9.359375 10.4140625 C5.51432091 9.73926824 3.53741697 8.74854506 1.25 5.5625 C0 3 0 3 0 0 Z " fill="#46B9D2" transform="translate(44,31)"/>
<path d="M0 0 C0.99 0 1.98 0 3 0 C3 3.96 3 7.92 3 12 C5.31 12.66 7.62 13.32 10 14 C10 15.65 10 17.3 10 19 C6.59366036 19.30966724 4.66558669 19.46591068 1.8125 17.46875 C-0.6447806 14.12176436 -0.44543828 11.22641735 -0.25 7.25 C-0.23195312 6.55261719 -0.21390625 5.85523438 -0.1953125 5.13671875 C-0.14838554 3.42388461 -0.07664605 1.71176176 0 0 Z " fill="#7DDFF1" transform="translate(50,16)"/>
<path d="M0 0 C4.55555556 0.55555556 4.55555556 0.55555556 6 2 C6.33 1.34 6.66 0.68 7 0 C7.99 0 8.98 0 10 0 C10 0.99 10 1.98 10 3 C9.34 3 8.68 3 8 3 C8.66 4.32 9.32 5.64 10 7 C9.01 7 8.02 7 7 7 C7 7.66 7 8.32 7 9 C2.545 9.495 2.545 9.495 -2 10 C-2.1953125 3.9453125 -2.1953125 3.9453125 -2 2 C-1.34 1.34 -0.68 0.68 0 0 Z " fill="#0FACDA" transform="translate(21,44)"/>
<path d="M0 0 C5.28 0 10.56 0 16 0 C15.67 1.65 15.34 3.3 15 5 C13.20841511 5.02696365 11.41671527 5.04637917 9.625 5.0625 C8.62726562 5.07410156 7.62953125 5.08570313 6.6015625 5.09765625 C4 5 4 5 2 4 C2 3.34 2 2.68 2 2 C1.34 2 0.68 2 0 2 C-0.33 2.66 -0.66 3.32 -1 4 C-0.67 2.68 -0.34 1.36 0 0 Z " fill="#E6E5E5" transform="translate(47,55)"/>
<path d="M0 0 C2.97 0.495 2.97 0.495 6 1 C6 3.97 6 6.94 6 10 C4.68 10.33 3.36 10.66 2 11 C-0.32590854 7.36576791 -0.16265833 4.22911669 0 0 Z " fill="#09D8EF" transform="translate(15,15)"/>
<path d="M0 0 C2.78388975 1.70625501 3.85384206 2.47626739 4.75 5.6875 C4.87375 6.8321875 4.87375 6.8321875 5 8 C0.25 9 0.25 9 -2 9 C-3.2065625 9.2784375 -3.2065625 9.2784375 -4.4375 9.5625 C-7 10 -7 10 -10 9 C-9.360625 8.87625 -8.72125 8.7525 -8.0625 8.625 C-7.381875 8.41875 -6.70125 8.2125 -6 8 C-5.67 7.34 -5.34 6.68 -5 6 C-5 6.66 -5 7.32 -5 8 C-4.34 8 -3.68 8 -3 8 C-3 7.34 -3 6.68 -3 6 C-2.01 6 -1.02 6 0 6 C-0.66 5.67 -1.32 5.34 -2 5 C-2 4.01 -2 3.02 -2 2 C-1.34 2 -0.68 2 0 2 C0 1.34 0 0.68 0 0 Z " fill="#0B90C5" transform="translate(31,45)"/>
<path d="M0 0 C1.32 0.33 2.64 0.66 4 1 C4 1.66 4 2.32 4 3 C7.3 3.33 10.6 3.66 14 4 C14.33 3.34 14.66 2.68 15 2 C15 2.66 15 3.32 15 4 C15.66 4 16.32 4 17 4 C17.33 2.68 17.66 1.36 18 0 C18.5625 1.9375 18.5625 1.9375 19 4 C18 5 18 5 15.59155273 5.11352539 C14.54942627 5.10828857 13.5072998 5.10305176 12.43359375 5.09765625 C11.30888672 5.09443359 10.18417969 5.09121094 9.02539062 5.08789062 C7.84138672 5.07951172 6.65738281 5.07113281 5.4375 5.0625 C4.24962891 5.05798828 3.06175781 5.05347656 1.83789062 5.04882812 C-1.10812226 5.03699675 -4.05403681 5.02051287 -7 5 C-7 4.67 -7 4.34 -7 4 C-3.535 3.505 -3.535 3.505 0 3 C0 2.01 0 1.02 0 0 Z " fill="#B6B5B6" transform="translate(45,56)"/>
<path d="M0 0 C1.98 0 3.96 0 6 0 C6 0.66 6 1.32 6 2 C5.01 2 4.02 2 3 2 C3 4.31 3 6.62 3 9 C1.68 8.67 0.36 8.34 -1 8 C-1.33 8.66 -1.66 9.32 -2 10 C-2.99 9.67 -3.98 9.34 -5 9 C-4.34 9 -3.68 9 -3 9 C-2.7834375 8.071875 -2.7834375 8.071875 -2.5625 7.125 C-2 5 -2 5 -1 3 C-0.67 2.01 -0.34 1.02 0 0 Z " fill="#1869E2" transform="translate(47,44)"/>
<path d="M0 0 C2.25 -0.3125 2.25 -0.3125 5 0 C7.3125 2.5 7.3125 2.5 9 5 C8.67 5.66 8.34 6.32 8 7 C5.6875 7.25 5.6875 7.25 3 7 C1.1875 5.1875 1.1875 5.1875 0 3 C0 2.01 0 1.02 0 0 Z " fill="#79D8E9" transform="translate(44,31)"/>
<path d="M0 0 C0.33 0 0.66 0 1 0 C1 2.64 1 5.28 1 8 C-0.65 8.33 -2.3 8.66 -4 9 C-4 12.63 -4 16.26 -4 20 C-5.32 20.33 -6.64 20.66 -8 21 C-8.33 20.34 -8.66 19.68 -9 19 C-8.01 19 -7.02 19 -6 19 C-5.67 15.37 -5.34 11.74 -5 8 C-3.68 8 -2.36 8 -1 8 C-0.67 5.36 -0.34 2.72 0 0 Z " fill="#3F7FB9" transform="translate(49,6)"/>
<path d="M0 0 C3.3 0 6.6 0 10 0 C9.67 1.32 9.34 2.64 9 4 C6.69 4.33 4.38 4.66 2 5 C1.34 3.35 0.68 1.7 0 0 Z " fill="#D8D7D8" transform="translate(36,55)"/>
<path d="M0 0 C0.99 0 1.98 0 3 0 C3 0.99 3 1.98 3 3 C2.34 3 1.68 3 1 3 C1.66 4.32 2.32 5.64 3 7 C2.01 7 1.02 7 0 7 C0 7.66 0 8.32 0 9 C-2.31 9 -4.62 9 -7 9 C-6.01 8.67 -5.02 8.34 -4 8 C-4.33 7.01 -4.66 6.02 -5 5 C-3.68 5 -2.36 5 -1 5 C-0.67 3.35 -0.34 1.7 0 0 Z " fill="#0AAEE8" transform="translate(28,44)"/>
<path d="M0 0 C0.14285714 7.42857143 0.14285714 7.42857143 -1 11 C-1.99 11 -2.98 11 -4 11 C-3.8864371 9.35333797 -3.75882619 7.70763918 -3.625 6.0625 C-3.55539063 5.14597656 -3.48578125 4.22945312 -3.4140625 3.28515625 C-3.27742188 2.53105469 -3.14078125 1.77695313 -3 1 C-1 0 -1 0 0 0 Z " fill="#62ADF1" transform="translate(44,14)"/>
<path d="M0 0 C0 0.99 0 1.98 0 3 C-1.43534841 3.2226746 -2.87345525 3.42761906 -4.3125 3.625 C-5.11300781 3.74101563 -5.91351563 3.85703125 -6.73828125 3.9765625 C-9 4 -9 4 -12 2 C-8.09971775 -0.60018816 -4.52565431 -0.15085514 0 0 Z " fill="#3EB8ED" transform="translate(34,2)"/>
<path d="M0 0 C1.65 0.33 3.3 0.66 5 1 C5.33 2.65 5.66 4.3 6 6 C3.33333333 6.66666667 0.66666667 7.33333333 -2 8 C-1.34 7.34 -0.68 6.68 0 6 C-0.33 5.34 -0.66 4.68 -1 4 C-0.5625 1.875 -0.5625 1.875 0 0 Z " fill="#077CCF" transform="translate(35,47)"/>
<path d="M0 0 C2.33944736 0.28730055 4.6739143 0.61936779 7 1 C1.85714286 5.42857143 1.85714286 5.42857143 -2 6 C-1.125 1.125 -1.125 1.125 0 0 Z " fill="#13BADB" transform="translate(21,5)"/>
<path d="M0 0 C1.258125 -0.04125 2.51625 -0.0825 3.8125 -0.125 C4.52019531 -0.14820313 5.22789063 -0.17140625 5.95703125 -0.1953125 C8 0 8 0 11 2 C9.02 2 7.04 2 5 2 C4.67 2.99 4.34 3.98 4 5 C3.01 5 2.02 5 1 5 C0.67 3.35 0.34 1.7 0 0 Z " fill="#E7E6E7" transform="translate(20,55)"/>
<path d="M0 0 C2.31 0 4.62 0 7 0 C7 0.66 7 1.32 7 2 C6.34 2 5.68 2 5 2 C5 2.66 5 3.32 5 4 C5.66 4.33 6.32 4.66 7 5 C5.35 4.67 3.7 4.34 2 4 C2 3.34 2 2.68 2 2 C1.34 2 0.68 2 0 2 C-0.33 2.66 -0.66 3.32 -1 4 C-0.67 2.68 -0.34 1.36 0 0 Z " fill="#EAE9EA" transform="translate(47,55)"/>
<path d="M0 0 C1.32 0 2.64 0 4 0 C4 1.65 4 3.3 4 5 C-1.53846154 5.36923077 -1.53846154 5.36923077 -3.875 3.5 C-4.24625 3.005 -4.6175 2.51 -5 2 C-2.69 2.33 -0.38 2.66 2 3 C2 2.34 2 1.68 2 1 C1.34 0.67 0.68 0.34 0 0 Z " fill="#64BBCD" transform="translate(56,30)"/>
<path d="M0 0 C1.98 0 3.96 0 6 0 C5.67 2.97 5.34 5.94 5 9 C4.67 9 4.34 9 4 9 C4 6.69 4 4.38 4 2 C2.68 2 1.36 2 0 2 C0 1.34 0 0.68 0 0 Z " fill="#1D5EDC" transform="translate(56,44)"/>
<path d="M0 0 C0.66 0 1.32 0 2 0 C1.67 0.99 1.34 1.98 1 3 C0.34 3 -0.32 3 -1 3 C-1.33 6.3 -1.66 9.6 -2 13 C-2.33 13 -2.66 13 -3 13 C-3 11.02 -3 9.04 -3 7 C-3.66 6.67 -4.32 6.34 -5 6 C-4.34 6 -3.68 6 -3 6 C-2.67 4.68 -2.34 3.36 -2 2 C-1.34 2 -0.68 2 0 2 C0 1.34 0 0.68 0 0 Z " fill="#5C81A7" transform="translate(42,12)"/>
<path d="M0 0 C0.99 0 1.98 0 3 0 C3 1.65 3 3.3 3 5 C1.35 4.67 -0.3 4.34 -2 4 C-2 3.34 -2 2.68 -2 2 C-1.34 2 -0.68 2 0 2 C0 1.34 0 0.68 0 0 Z " fill="#D3D2D3" transform="translate(54,55)"/>
<path d="M0 0 C1.98 0 3.96 0 6 0 C6.33 0.99 6.66 1.98 7 3 C4.69 3 2.38 3 0 3 C0 2.01 0 1.02 0 0 Z " fill="#D7D6D6" transform="translate(25,57)"/>
<path d="M0 0 C1.98 0 3.96 0 6 0 C5.67 1.32 5.34 2.64 5 4 C4.01 4 3.02 4 2 4 C2 3.34 2 2.68 2 2 C1.34 2 0.68 2 0 2 C0 1.34 0 0.68 0 0 Z " fill="#E6E6E6" transform="translate(40,55)"/>
<path d="M0 0 C1.98 0.495 1.98 0.495 4 1 C4 1.99 4 2.98 4 4 C3.34 4 2.68 4 2 4 C1.67 4.66 1.34 5.32 1 6 C1 5.01 1 4.02 1 3 C0.34 2.67 -0.32 2.34 -1 2 C-0.67 1.34 -0.34 0.68 0 0 Z " fill="#0C86DE" transform="translate(36,44)"/>
</svg>
